<?xml version="1.0" encoding="iso-8859-1"?>
<!-- Generator: Adobe Illustrator 21.0.0, SVG Export Plug-In . SVG Version: 6.00 Build 0)  -->
<svg xmlns="http://www.w3.org/2000/svg" xmlns:xlink="http://www.w3.org/1999/xlink" version="1.1" id="Capa_1" x="0px" y="0px" viewBox="0 0 512 512" style="enable-background:new 0 0 512 512;" xml:space="preserve" width="512" height="512">
<g>
	<path style="fill:#FFDA2E;" d="M185,195.279V140H90V0h332v140H266.603L185,195.279z"/>
	<polygon style="fill:#FDBF00;" points="256,0 256,147.182 266.603,140 422,140 422,0  "/>
	<g>
		<path style="fill:#00429B;" d="M180,302H30v-57c0-30.327,24.673-55,55-55h40c30.327,0,55,24.673,55,55V302z"/>
		<path style="fill:#002659;" d="M180,245c0-30.327-24.673-55-55-55h-20v112h75V245z"/>
		<path style="fill:#FFDECF;" d="M105,220c-35.841,0-65-29.159-65-65s29.159-65,65-65s65,29.159,65,65S140.841,220,105,220z"/>
		<path style="fill:#FFCDBE;" d="M105,90v130c35.841,0,65-29.159,65-65S140.841,90,105,90z"/>
		<path style="fill:#CF0050;" d="M180,512H30V332h150V512z"/>
		<rect x="105" y="332" style="fill:#A1003C;" width="75" height="180"/>
		<path style="fill:#FF3C7D;" d="M210,362H0v-90h210V362z"/>
		<path style="fill:#CF0050;" d="M210,362H105v-90h105V362z"/>
	</g>
	<g>
		<path style="fill:#00429B;" d="M482,302H332v-57c0-30.327,24.673-55,55-55h40c30.327,0,55,24.673,55,55V302z"/>
		<path style="fill:#002659;" d="M482,245c0-30.327-24.673-55-55-55h-20v112h75V245z"/>
		<path style="fill:#FFDECF;" d="M407,220c-35.841,0-65-29.159-65-65s29.159-65,65-65s65,29.159,65,65S442.841,220,407,220z"/>
		<path style="fill:#FFCDBE;" d="M407,90v130c35.841,0,65-29.159,65-65S442.841,90,407,90z"/>
		<path style="fill:#005FDF;" d="M482,512H332V332h150V512z"/>
		<rect x="407" y="332" style="fill:#00429B;" width="75" height="180"/>
		<path style="fill:#00ECCF;" d="M512,362H302v-90h210V362z"/>
		<path style="fill:#00CAB1;" d="M512,362H407v-90h105V362z"/>
	</g>
</g>















</svg>
