<svg height="448pt" viewBox="-56 0 448 448" width="448pt" xmlns="http://www.w3.org/2000/svg" xmlns:xlink="http://www.w3.org/1999/xlink"><linearGradient id="a" gradientUnits="userSpaceOnUse" x1=".344" x2="387.664" y1="443.664" y2="56.344"><stop offset="0" stop-color="#41dfd0"/><stop offset="1" stop-color="#ee83ef"/></linearGradient><path d="m.734375 116.71875c-.085937.210938-.125.425781-.199219.640625-.25.707031-.402344 1.445313-.4453122 2.191406 0 .152344-.0898438.289063-.0898438.449219v320c0 4.417969 3.582031 8 8 8h320c4.417969 0 8-3.582031 8-8v-432c0-4.417969-3.582031-8-8-8h-216c-.167969 0-.304688.0898438-.464844.0976562-.746094.0351558-1.480468.1835938-2.183594.4374998-.273437.085938-.539062.1875-.800781.304688-.65625.316406-1.265625.726562-1.808593 1.214844-.171876.125-.339844.257812-.503907.402343 0 0-.085937.054688-.117187.09375l-104 112c-.578125.644531-1.046875 1.375-1.386719 2.167969zm103.265625-88.34375v83.625h-77.65625zm-88 99.625h96c4.417969 0 8-3.582031 8-8v-104h200v416h-304zm117 78.246094-40 32c-3.449219 2.761718-8.488281 2.203125-11.246094-1.246094-2.761718-3.449219-2.203125-8.488281 1.246094-11.246094l22.191406-17.753906h-25.191406c-4.417969 0-8-3.582031-8-8s3.582031-8 8-8h25.191406l-22.191406-17.753906c-3.449219-2.757813-4.007812-7.796875-1.246094-11.246094 2.757813-3.449219 7.796875-4.007812 11.246094-1.246094l40 32c.113281.085938.152344.222656.257812.316406.574219.539063 1.066407 1.160157 1.453126 1.839844.199218.253906.378906.523438.535156.800782 1.003906 2.085937 1.003906 4.511718 0 6.59375-.160156.277343-.339844.542968-.535156.800781-.386719.679687-.878907 1.296875-1.453126 1.832031-.105468.085938-.144531.222656-.257812.308594zm131-6.246094c0 4.417969-3.582031 8-8 8h-25.191406l22.191406 17.753906c3.449219 2.757813 4.007812 7.796875 1.246094 11.246094-2.757813 3.449219-7.796875 4.007812-11.246094 1.246094l-40-32c-.113281-.085938-.152344-.222656-.257812-.316406-.574219-.535157-1.066407-1.152344-1.453126-1.832032-.195312-.257812-.375-.523437-.535156-.800781-1.003906-2.082031-1.003906-4.511719 0-6.59375.160156-.277344.339844-.542969.535156-.800781.386719-.679688.878907-1.296875 1.453126-1.832032.105468-.09375.144531-.230468.257812-.316406l40-32c3.449219-2.761718 8.488281-2.203125 11.246094 1.246094 2.761718 3.449219 2.203125 8.488281-1.246094 11.246094l-22.191406 17.753906h25.191406c4.417969 0 8 3.582031 8 8zm-29.238281 109c1.09375 2.652344.679687 5.691406-1.078125 7.957031-1.761719 2.269531-4.605469 3.417969-7.445313 3.011719-2.84375-.402344-5.25-2.300781-6.308593-4.96875-8.550782-21.171875-29.097657-35.035156-51.929688-35.035156s-43.378906 13.863281-51.929688 35.035156c-1.675781 4.066406-6.316406 6.015625-10.394531 4.367188-4.074219-1.648438-6.058593-6.28125-4.4375-10.367188 10.996094-27.214844 37.410157-45.035156 66.761719-45.035156s55.765625 17.820312 66.761719 45.035156zm0 0" fill="url(#a)"/></svg>